<?xml version="1.0" standalone="no"?>
<!DOCTYPE svg PUBLIC "-//W3C//DTD SVG 20010904//EN"
 "http://www.w3.org/TR/2001/REC-SVG-20010904/DTD/svg10.dtd">
<svg version="1.0" xmlns="http://www.w3.org/2000/svg"
 width="600.000000pt" height="564.000000pt" viewBox="0 0 600.000000 564.000000"
 preserveAspectRatio="xMidYMid meet">
<metadata>
Created by potrace 1.15, written by Peter Selinger 2001-2017
</metadata>
<g transform="translate(0.000000,564.000000) scale(0.100000,-0.100000)"
fill="#000000" stroke="none">
<path d="M4564 5311 c-21 -15 -67 -58 -101 -94 -79 -82 -80 -98 -11 -174 28
-32 53 -60 54 -62 5 -6 254 230 254 241 0 5 -24 34 -54 64 -64 63 -85 67 -142
25z"/>
<path d="M5155 5193 c-74 -71 -135 -131 -135 -134 0 -3 44 -53 98 -109 73 -77
102 -102 115 -97 31 12 17 41 -54 113 l-71 71 84 81 c56 55 91 82 107 82 33 0
220 -194 221 -230 1 -19 -24 -48 -105 -125 l-106 -100 29 -28 29 -28 137 132
c75 72 136 138 136 146 0 20 -318 353 -336 353 -8 0 -75 -57 -149 -127z"/>
<path d="M434 5303 c-12 -2 -32 -15 -45 -29 l-24 -26 -3 -471 c-2 -313 0 -484
8 -508 20 -69 36 -74 289 -77 l224 -3 -49 55 -49 55 -123 0 c-127 1 -173 12
-186 46 -3 9 -6 196 -6 415 l0 399 26 20 c26 20 38 21 343 21 339 0 317 3 363
-43 1 -1 5 -148 8 -325 l5 -324 53 66 53 65 -3 295 c-3 281 -4 296 -24 323
-39 53 -40 53 -454 51 -212 0 -395 -3 -406 -5z"/>
<path d="M2923 5271 c-48 -12 -115 -55 -141 -90 -29 -40 -52 -104 -52 -147 0
-35 -3 -37 -75 -49 -44 -8 -105 -36 -152 -72 -33 -24 -33 -25 -33 -107 l0 -83
-40 -12 c-55 -16 -70 -42 -70 -124 0 -59 3 -71 25 -92 15 -16 36 -25 55 -25
l30 0 0 -159 c0 -132 3 -162 16 -175 20 -20 15 -21 79 9 66 32 162 48 224 39
25 -3 80 -20 122 -36 l76 -30 59 25 c133 56 242 56 365 1 l62 -28 18 23 c17
20 19 42 19 177 l0 154 40 0 c30 0 47 7 65 25 22 21 25 33 25 93 0 88 -20 118
-85 128 l-45 6 0 68 c0 38 -4 79 -9 92 -16 43 -127 96 -232 113 -35 5 -37 7
-41 53 -12 121 -104 214 -224 226 -27 3 -63 1 -81 -3z m-40 -391 l47 -24 0
-309 0 -309 -27 6 c-130 31 -218 31 -320 0 -23 -6 -23 -6 -23 110 l0 116 42 0
c29 0 49 7 65 22 20 19 23 31 23 98 0 67 -3 79 -23 98 -12 11 -41 24 -65 28
l-42 7 0 67 c0 74 -4 69 91 110 42 18 178 6 232 -20z m490 -1 l47 -23 0 -67 0
-67 -32 -7 c-18 -4 -43 -16 -55 -28 -20 -18 -23 -30 -23 -96 0 -89 20 -121 77
-121 l33 0 0 -115 c0 -63 -2 -115 -5 -115 -2 0 -30 7 -62 15 -31 8 -82 15
-113 15 -50 -1 -74 -4 -167 -25 l-33 -7 0 305 c0 249 3 307 14 316 8 7 38 21
67 32 73 27 184 22 252 -12z"/>
<path d="M4660 5070 l-125 -119 34 -35 34 -35 128 122 129 121 -32 33 c-18 18
-34 33 -37 33 -4 -1 -62 -54 -131 -120z"/>
<path d="M5303 5113 c-30 -6 -73 -59 -73 -89 0 -86 109 -136 163 -76 68 74 8
183 -90 165z"/>
<path d="M4751 4971 l-123 -117 282 -300 c155 -164 285 -300 289 -302 11 -4
252 229 249 240 -6 17 -552 596 -563 597 -5 0 -66 -53 -134 -118z m413 -286
c91 -96 166 -180 166 -188 0 -8 -7 -20 -15 -27 -12 -10 -19 -10 -34 1 -22 16
-312 324 -324 344 -7 13 16 45 33 45 4 0 82 -79 174 -175z"/>
<path d="M583 5060 c-31 -13 -40 -55 -18 -80 17 -19 33 -20 275 -20 282 0 294
2 288 55 -5 51 -28 55 -288 54 -129 0 -245 -4 -257 -9z"/>
<path d="M572 4874 c-27 -19 -28 -48 -2 -74 19 -19 33 -20 274 -20 276 0 286
2 286 55 0 53 -10 55 -283 55 -212 0 -256 -2 -275 -16z"/>
<path d="M567 4692 c-21 -23 -22 -46 -1 -66 13 -14 53 -16 278 -16 280 0 286
1 286 50 0 49 -6 50 -285 50 -241 0 -263 -1 -278 -18z"/>
<path d="M1520 4700 c-22 -5 -131 -125 -315 -344 l-33 -40 -73 63 c-91 77
-122 94 -158 86 -47 -10 -73 -46 -69 -96 3 -42 7 -47 127 -151 137 -118 166
-135 208 -121 31 10 404 437 424 485 28 68 -37 137 -111 118z"/>
<path d="M4508 4569 c-82 -78 -148 -148 -148 -157 0 -23 317 -352 338 -352 9
1 83 65 165 143 l147 142 -25 28 -25 29 -119 -111 c-87 -81 -125 -111 -144
-111 -36 0 -216 193 -217 233 0 15 4 27 8 27 5 0 28 -20 51 -46 43 -45 73 -54
79 -22 2 9 -15 37 -37 61 -37 40 -51 67 -35 67 4 0 29 -21 56 -46 27 -25 54
-44 61 -41 26 8 17 40 -23 83 -31 34 -39 49 -31 57 8 8 24 -2 61 -38 42 -41
51 -46 65 -35 22 19 19 26 -31 80 -60 64 -39 77 26 16 31 -29 55 -44 64 -40 9
3 16 11 16 16 0 11 -139 158 -149 158 -3 0 -72 -64 -153 -141z"/>
<path d="M567 4522 c-22 -24 -21 -45 1 -65 26 -23 222 -25 222 -2 0 8 16 30
35 50 l36 35 -139 0 c-122 0 -141 -2 -155 -18z"/>
<path d="M5360 4330 c-121 -115 -124 -118 -100 -128 220 -88 292 -112 310
-102 11 6 20 17 20 24 0 18 -90 309 -99 318 -3 4 -62 -47 -131 -112z m131 -36
c12 -52 12 -52 -21 -81 l-33 -30 -51 19 c-28 11 -53 22 -55 24 -3 3 26 36 64
74 76 77 77 76 96 -6z"/>
<path d="M724 3451 c-30 -13 -64 -59 -64 -87 0 -19 -5 -24 -25 -24 -13 0 -29
-8 -34 -19 -8 -14 -25 -19 -83 -23 -79 -5 -111 -19 -127 -55 -7 -16 -11 -155
-11 -404 l0 -381 29 -29 c29 -29 31 -29 144 -29 l115 0 10 40 10 40 -90 0
c-81 0 -91 2 -114 25 l-25 25 3 326 c3 369 0 354 85 354 40 0 43 -2 43 -28 0
-48 12 -52 175 -52 163 0 175 4 175 52 0 26 2 28 44 28 71 0 76 -10 76 -163
l1 -132 44 50 45 50 0 100 c0 60 -5 110 -13 125 -18 37 -72 60 -139 60 -47 0
-59 4 -68 20 -6 12 -21 20 -35 20 -20 0 -25 5 -25 25 0 58 -89 110 -146 86z"/>
<path d="M2447 3442 c-23 -26 -22 -94 1 -115 12 -11 36 -17 65 -17 46 0 47 -1
47 -30 0 -118 77 -315 155 -399 l46 -49 -50 -62 c-84 -105 -135 -233 -148
-376 l-6 -64 -41 0 c-61 0 -86 -22 -86 -74 0 -80 -33 -76 572 -76 604 0 568
-5 568 78 0 50 -26 72 -86 72 l-41 0 -6 64 c-14 144 -63 270 -147 374 l-51 64
46 49 c78 84 155 281 155 399 0 29 1 30 48 30 60 0 82 20 82 77 0 77 31 73
-572 73 -505 0 -536 -1 -551 -18z m893 -164 c0 -54 -28 -155 -60 -218 -33 -65
-100 -138 -168 -182 -61 -40 -58 -68 11 -112 55 -36 111 -92 141 -139 33 -53
66 -157 72 -227 l7 -70 -343 0 -343 0 7 70 c14 156 90 286 214 366 42 27 52
39 52 62 0 23 -9 33 -56 61 -66 41 -115 96 -155 173 -31 62 -59 162 -59 216
l0 32 340 0 340 0 0 -32z"/>
<path d="M2841 2974 c7 -8 31 -25 53 -37 78 -41 217 -22 265 37 12 14 -3 16
-159 16 -156 0 -171 -2 -159 -16z"/>
<path d="M2939 2567 c-75 -28 -128 -84 -149 -157 l-9 -30 234 0 234 0 -14 40
c-33 93 -106 149 -202 156 -35 3 -73 -1 -94 -9z"/>
<path d="M4790 3364 c-70 -30 -130 -108 -145 -187 l-7 -37 51 0 c46 0 51 2 51
23 0 33 35 84 70 102 25 13 76 16 330 16 341 0 348 -2 381 -74 25 -57 28 -334
3 -396 -16 -39 -50 -71 -89 -81 -16 -5 -21 -16 -23 -53 -3 -43 -1 -47 20 -47
40 0 124 46 153 84 48 62 54 97 55 287 0 201 -9 245 -67 304 -71 73 -79 75
-433 74 -259 0 -321 -2 -350 -15z"/>
<path d="M1365 3169 l-50 -51 31 -26 c17 -15 66 -58 107 -95 l76 -69 30 24
c16 12 32 30 35 38 3 8 11 23 18 32 9 12 9 24 3 42 -14 35 -153 156 -179 156
-13 0 -42 -21 -71 -51z"/>
<path d="M1269 3064 l-24 -26 55 -50 c149 -134 159 -141 176 -128 42 36 38 44
-66 136 -55 49 -104 90 -108 92 -5 1 -19 -9 -33 -24z"/>
<path d="M4493 3059 c-45 -9 -88 -43 -109 -86 -16 -33 -19 -67 -22 -243 -3
-197 -2 -207 20 -249 47 -90 81 -100 365 -101 l203 0 125 -62 c147 -74 160
-73 160 11 -1 41 2 51 16 51 9 0 30 13 47 28 l29 28 8 224 c8 245 3 287 -41
339 -46 56 -76 60 -440 63 -182 2 -344 1 -361 -3z m617 -202 c30 -15 37 -48
15 -71 -14 -14 -50 -16 -279 -16 -277 0 -286 2 -286 46 0 49 25 54 285 54 173
0 247 -4 265 -13z m18 -199 c7 -7 12 -21 12 -33 0 -43 -11 -45 -290 -45 -279
0 -290 2 -290 45 0 43 11 45 290 45 194 0 269 -3 278 -12z"/>
<path d="M542 3018 c-16 -16 -15 -43 2 -57 9 -8 78 -11 226 -9 190 3 214 5
224 21 8 12 8 22 0 35 -10 15 -34 17 -225 20 -159 2 -218 -1 -227 -10z"/>
<path d="M995 2758 c-179 -199 -223 -254 -213 -263 7 -6 54 -48 104 -93 50
-45 94 -82 97 -82 3 0 107 113 231 250 l225 251 -104 94 c-57 52 -106 95 -109
95 -3 0 -107 -113 -231 -252z m175 35 c0 -13 -225 -274 -255 -295 -15 -12 -30
-4 -33 18 -2 18 47 78 204 246 52 56 84 68 84 31z"/>
<path d="M542 2878 c-17 -17 -15 -43 4 -62 13 -14 47 -16 213 -16 l198 0 23
25 c19 21 22 30 14 43 -10 15 -36 17 -225 20 -159 2 -218 -1 -227 -10z"/>
<path d="M546 2734 c-9 -8 -16 -22 -16 -29 0 -7 7 -21 16 -29 13 -13 41 -16
152 -16 l137 1 38 44 38 45 -175 0 c-145 0 -177 -3 -190 -16z"/>
<path d="M736 2453 c-72 -247 -74 -260 -52 -269 14 -5 266 94 266 105 0 7
-187 174 -200 179 -5 2 -11 -5 -14 -15z"/>
<path d="M861 1565 c-110 -24 -226 -89 -311 -175 -252 -251 -252 -649 0 -900
251 -252 649 -252 900 0 252 251 252 649 0 900 -155 156 -375 221 -589 175z
m299 -115 c112 -33 217 -113 290 -222 111 -167 111 -409 0 -576 -108 -161
-260 -244 -450 -244 -190 0 -342 83 -450 244 -106 159 -111 402 -12 558 140
221 375 311 622 240z"/>
<path d="M874 1311 c-239 -81 -340 -370 -203 -582 153 -239 505 -239 658 0
139 217 31 511 -215 586 -65 20 -176 18 -240 -4z m201 -92 c99 -26 186 -119
207 -222 42 -199 -140 -381 -339 -339 -155 32 -257 186 -225 339 34 163 198
265 357 222z"/>
<path d="M931 1072 c-48 -24 -73 -62 -78 -119 -8 -90 47 -153 139 -161 44 -3
59 0 88 20 158 106 20 347 -149 260z"/>
<path d="M3140 1442 l-133 -127 69 -40 c100 -58 202 -163 249 -257 l38 -77
123 116 c68 64 131 132 140 151 61 129 -131 362 -298 362 l-55 0 -133 -128z"/>
<path d="M5173 1538 c-49 -55 -165 -231 -198 -300 -20 -42 -42 -106 -48 -142
l-11 -66 -52 0 c-85 0 -111 9 -125 42 -40 97 -147 143 -253 108 -43 -14 -99
-75 -116 -125 -26 -78 11 -180 82 -223 81 -50 178 -36 245 34 24 24 47 44 53
44 6 0 42 -7 81 -16 l69 -16 -5 -51 c-13 -115 -12 -113 -54 -126 -73 -21 -131
-104 -131 -185 1 -109 91 -196 205 -196 44 0 114 39 149 83 59 74 41 213 -34
268 l-27 21 21 79 21 78 40 -7 c89 -16 206 -5 330 31 166 49 220 70 220 87 0
19 -40 25 -310 40 -121 7 -223 16 -228 19 -4 4 22 123 58 264 36 142 63 262
60 267 -9 15 -20 12 -42 -12z m-545 -461 c79 -72 14 -203 -91 -183 -93 17
-118 153 -35 193 53 26 89 24 126 -10z m316 -461 c44 -18 66 -52 66 -99 0 -31
-7 -46 -34 -73 -47 -47 -95 -47 -142 0 -57 57 -43 140 30 172 39 17 40 17 80
0z"/>
<path d="M2860 1165 c-72 -72 -90 -95 -74 -95 48 0 143 -61 216 -139 92 -98
142 -190 137 -254 l-4 -44 49 44 c49 44 50 44 58 22 15 -39 -10 -122 -56 -191
l-44 -65 56 -23 56 -23 36 41 c64 72 75 149 35 246 -13 33 -23 62 -21 64 2 2
20 -11 41 -29 42 -37 77 -102 94 -176 l13 -52 55 27 55 27 -6 49 c-13 110 -87
179 -226 210 -23 5 -25 9 -26 69 -1 82 -45 167 -130 251 -60 60 -174 136 -204
136 -8 0 -58 -43 -110 -95z"/>
<path d="M2720 1013 c-15 -6 -303 -279 -307 -291 -2 -4 23 -8 54 -9 77 -4 149
-40 211 -108 66 -71 96 -135 88 -180 -18 -92 -142 -85 -250 16 -25 23 -46 45
-46 50 0 5 9 13 21 19 17 10 26 6 59 -24 50 -45 91 -66 130 -66 25 0 30 4 30
23 0 50 -88 155 -161 193 -41 21 -127 29 -163 15 -26 -11 -28 -15 -23 -51 18
-137 179 -290 306 -290 61 0 65 3 269 204 163 162 166 167 111 263 -83 145
-253 267 -329 236z"/>
</g>
</svg>
